<?xml version="1.0" encoding="UTF-8"?>
<svg version="1.1" xmlns="http://www.w3.org/2000/svg" width="512" height="512">
<path d="M0 0 C1.01790619 0.00215515 2.03581238 0.0043103 3.08456421 0.00653076 C17.69363523 0.05620146 32.02575853 0.30709809 46.375 3.3125 C47.34985352 3.51117676 48.32470703 3.70985352 49.32910156 3.91455078 C97.7109774 14.03517194 141.69928269 35.9516877 177.375 70.3125 C178.3640332 71.26068604 178.3640332 71.26068604 179.37304688 72.22802734 C188.86130305 81.37247479 197.6012044 90.66984009 205.375 101.3125 C206.23306152 102.46355017 207.09113451 103.61459177 207.94921875 104.765625 C213.98736829 112.95680614 219.34595521 121.47054105 224.375 130.3125 C224.73948242 130.94430176 225.10396484 131.57610352 225.47949219 132.22705078 C247.08534998 169.97532572 256.85198095 212.74189997 256.6875 255.9375 C256.68534485 256.95540619 256.6831897 257.97331238 256.68096924 259.02206421 C256.63129854 273.63113523 256.38040191 287.96325853 253.375 302.3125 C253.07698486 303.77478027 253.07698486 303.77478027 252.77294922 305.26660156 C242.65232806 353.6484774 220.7358123 397.63678269 186.375 433.3125 C185.74287598 433.97185547 185.11075195 434.63121094 184.45947266 435.31054688 C175.31502521 444.79880305 166.01765991 453.5387044 155.375 461.3125 C154.22394983 462.17056152 153.07290823 463.02863451 151.921875 463.88671875 C143.73224019 469.92427396 135.22961724 475.30707302 126.375 480.3125 C125.66778809 480.7146875 124.96057617 481.116875 124.23193359 481.53125 C101.09654164 494.5566741 75.92537591 503.30551461 49.9375 508.625 C49.21860596 508.77235596 48.49971191 508.91971191 47.7590332 509.0715332 C33.08339502 511.86090125 18.55831162 512.66142619 3.64770508 512.62817383 C0.70811513 512.6250221 -2.2304558 512.64854926 -5.16992188 512.67382812 C-18.54306192 512.71848737 -31.43916711 511.51301542 -44.625 509.3125 C-46.33055054 509.03031616 -46.33055054 509.03031616 -48.07055664 508.74243164 C-91.33802759 500.97044532 -132.38793216 480.98345309 -165.625 452.3125 C-166.37007813 451.67828125 -167.11515625 451.0440625 -167.8828125 450.390625 C-181.38779833 438.57948485 -194.05918743 425.82889772 -204.625 411.3125 C-205.48149066 410.16255169 -206.33826433 409.01281411 -207.1953125 407.86328125 C-213.23534209 399.67315742 -218.61867614 391.16870382 -223.625 382.3125 C-224.0271875 381.60528809 -224.429375 380.89807617 -224.84375 380.16943359 C-237.8691741 357.03404164 -246.61801461 331.86287591 -251.9375 305.875 C-252.08485596 305.15610596 -252.23221191 304.43721191 -252.3840332 303.6965332 C-255.35789088 288.05024391 -255.99800362 272.57681954 -255.9375 256.6875 C-255.93534485 255.66959381 -255.9331897 254.65168762 -255.93096924 253.60293579 C-255.88129854 238.99386477 -255.63040191 224.66174147 -252.625 210.3125 C-252.42632324 209.33764648 -252.22764648 208.36279297 -252.02294922 207.35839844 C-241.90232806 158.9765226 -219.9858123 114.98821731 -185.625 79.3125 C-184.99287598 78.65314453 -184.36075195 77.99378906 -183.70947266 77.31445312 C-174.56502521 67.82619695 -165.26765991 59.0862956 -154.625 51.3125 C-153.47394983 50.45443848 -152.32290823 49.59636549 -151.171875 48.73828125 C-142.98224019 42.70072604 -134.47961724 37.31792698 -125.625 32.3125 C-124.91778809 31.9103125 -124.21057617 31.508125 -123.48193359 31.09375 C-100.34654164 18.0683259 -75.17537591 9.31948539 -49.1875 4 C-48.46860596 3.85264404 -47.74971191 3.70528809 -47.0090332 3.5534668 C-31.36274391 0.57960912 -15.88931954 -0.06050362 0 0 Z " fill="#9CBDC8" transform="translate(255.625,-0.3125)"/>
<path d="M0 0 C1.026867 -0.00521549 2.053734 -0.01043099 3.11171818 -0.01580453 C4.81684149 -0.00911236 4.81684149 -0.00911236 6.55641174 -0.002285 C7.75727386 -0.00540498 8.95813597 -0.00852497 10.19538784 -0.01173949 C13.53914943 -0.01835911 16.88268788 -0.01594619 20.22643614 -0.00976706 C23.82838954 -0.00525809 27.43032287 -0.01221856 31.03227234 -0.0177269 C38.09263705 -0.02663925 45.15295934 -0.02469072 52.21332574 -0.01890162 C57.94934453 -0.01439235 63.6853514 -0.01376903 69.42137146 -0.01594925 C70.23647924 -0.01625572 71.05158702 -0.01656218 71.89139503 -0.01687793 C73.54705851 -0.01751736 75.20272198 -0.01816578 76.85838544 -0.01882312 C92.39849945 -0.02453181 107.9385899 -0.01796008 123.47870004 -0.00722238 C136.82468411 0.00171362 150.17063338 0.00016173 163.51661682 -0.00905991 C178.99957 -0.01975304 194.48250251 -0.02398243 209.96545887 -0.01783538 C211.61517143 -0.01719825 213.26488399 -0.01656951 214.91459656 -0.01594925 C216.13226209 -0.01548642 216.13226209 -0.01548642 217.37452692 -0.01501425 C223.10637401 -0.01328443 228.83820803 -0.01620856 234.5700531 -0.02090836 C241.55136088 -0.02650658 248.53262367 -0.02502314 255.51392627 -0.01434687 C259.0786822 -0.00907582 262.643363 -0.00705763 266.20811844 -0.01364517 C270.06530726 -0.02066554 273.92237193 -0.01230642 277.77955627 -0.002285 C278.91630515 -0.00674645 280.05305403 -0.01120789 281.22424984 -0.01580453 C282.25111684 -0.01058903 283.27798384 -0.00537354 284.33596802 0 C285.22722665 0.0003247 286.11848528 0.00064941 287.03675175 0.00098395 C289.16798401 0.25168228 289.16798401 0.25168228 291.16798401 2.25168228 C291.41868234 4.38291454 291.41868234 4.38291454 291.41966629 7.08369827 C291.42488178 8.11056527 291.43009728 9.13743227 291.43547082 10.19541645 C291.43100938 11.33216533 291.42654793 12.4689142 291.42195129 13.64011002 C291.42507128 14.84097213 291.42819126 16.04183424 291.43140578 17.27908611 C291.4380254 20.6228477 291.43561248 23.96638615 291.42943335 27.31013441 C291.42492438 30.91208782 291.43188485 34.51402114 291.43739319 38.11597061 C291.44630554 45.17633532 291.44435701 52.23665761 291.43856791 59.29702401 C291.43405864 65.03304281 291.43343532 70.76904968 291.43561554 76.50506973 C291.43592201 77.32017751 291.43622847 78.13528529 291.43654422 78.97509331 C291.43718365 80.63075678 291.43783207 82.28642025 291.43848941 83.94208372 C291.4441981 99.48219772 291.43762637 115.02228817 291.42688867 130.56239831 C291.41795267 143.90838238 291.41950456 157.25433166 291.4287262 170.60031509 C291.43941933 186.08326828 291.44364872 201.56620078 291.43750167 217.04915714 C291.43686454 218.6988697 291.4362358 220.34858226 291.43561554 221.99829483 C291.43530699 222.81007185 291.43499844 223.62184887 291.43468054 224.45822519 C291.43295072 230.19007228 291.43587486 235.92190631 291.44057465 241.65375137 C291.44617287 248.63505916 291.44468943 255.61632194 291.43401316 262.59762454 C291.42874211 266.16238047 291.42672392 269.72706127 291.43331146 273.29181671 C291.44033183 277.14900553 291.43197271 281.0060702 291.42195129 284.86325455 C291.42641274 286.00000342 291.43087418 287.1367523 291.43547082 288.30794811 C291.43025532 289.33481511 291.42503983 290.36168211 291.41966629 291.41966629 C291.41934159 292.31092492 291.41901688 293.20218355 291.41868234 294.12045002 C291.16798401 296.25168228 291.16798401 296.25168228 289.16798401 298.25168228 C287.03675175 298.50238061 287.03675175 298.50238061 284.33596802 298.50336456 C282.79566752 298.5111878 282.79566752 298.5111878 281.22424984 298.51916909 C280.08750096 298.51470765 278.95075209 298.51024621 277.77955627 298.50564957 C276.57869416 298.50876955 275.37783205 298.51188953 274.14058018 298.51510406 C270.79681859 298.52172367 267.45328014 298.51931075 264.10953188 298.51313162 C260.50757848 298.50862266 256.90564515 298.51558312 253.30369568 298.52109146 C246.24333097 298.53000381 239.18300868 298.52805528 232.12264228 298.52226618 C226.38662348 298.51775692 220.65061661 298.51713359 214.91459656 298.51931381 C213.69193489 298.51977351 213.69193489 298.51977351 212.44457299 298.5202425 C210.78890951 298.52088192 209.13324604 298.52153035 207.47758257 298.52218768 C191.93746857 298.52789637 176.39737812 298.52132465 160.85726798 298.51058695 C147.51128391 298.50165095 134.16533463 298.50320284 120.8193512 298.51242447 C105.33639801 298.5231176 89.85346551 298.527347 74.37050915 298.52119994 C72.72079659 298.52056282 71.07108403 298.51993407 69.42137146 298.51931381 C68.20370593 298.51885099 68.20370593 298.51885099 66.9614411 298.51837881 C61.22959401 298.51664899 55.49775998 298.51957313 49.76591492 298.52427292 C42.78460713 298.52987114 35.80334435 298.5283877 28.82204175 298.51771143 C25.25728582 298.51244038 21.69260502 298.51042219 18.12784958 298.51700974 C14.27066076 298.5240301 10.41359609 298.51567099 6.55641174 298.50564957 C5.41966287 298.51011101 4.28291399 298.51457245 3.11171818 298.51916909 C2.08485118 298.5139536 1.05798418 298.5087381 0 298.50336456 C-0.89125863 298.50303986 -1.78251726 298.50271515 -2.70078373 298.50238061 C-4.83201599 298.25168228 -4.83201599 298.25168228 -6.83201599 296.25168228 C-7.08271432 294.12045002 -7.08271432 294.12045002 -7.08369827 291.41966629 C-7.08891377 290.39279929 -7.09412926 289.36593229 -7.0995028 288.30794811 C-7.09504136 287.17119924 -7.09057992 286.03445036 -7.08598328 284.86325455 C-7.08910326 283.66239244 -7.09222324 282.46153032 -7.09543777 281.22427845 C-7.10205738 277.88051686 -7.09964446 274.53697841 -7.09346533 271.19323015 C-7.08895637 267.59127675 -7.09591683 263.98934342 -7.10142517 260.38739395 C-7.11033752 253.32702924 -7.10838899 246.26670695 -7.10259989 239.20634055 C-7.09809063 233.47032176 -7.0974673 227.73431489 -7.09964752 221.99829483 C-7.09995399 221.18318705 -7.10026045 220.36807927 -7.10057621 219.52827126 C-7.10121563 217.87260778 -7.10186406 216.21694431 -7.10252139 214.56128085 C-7.10823008 199.02116684 -7.10165836 183.48107639 -7.09092066 167.94096625 C-7.08198466 154.59498218 -7.08353655 141.24903291 -7.09275818 127.90304947 C-7.10345131 112.42009629 -7.10768071 96.93716378 -7.10153365 81.45420742 C-7.10089653 79.80449486 -7.10026778 78.1547823 -7.09964752 76.50506973 C-7.09933897 75.69329271 -7.09903042 74.88151569 -7.09871252 74.04513937 C-7.0969827 68.31329228 -7.09990684 62.58145826 -7.10460663 56.84961319 C-7.11020485 49.86830541 -7.10872141 42.88704262 -7.09804514 35.90574002 C-7.09277409 32.34098409 -7.0907559 28.77630329 -7.09734344 25.21154785 C-7.10436381 21.35435903 -7.0960047 17.49729436 -7.08598328 13.64011002 C-7.09044472 12.50336114 -7.09490616 11.36661226 -7.0995028 10.19541645 C-7.09428731 9.16854945 -7.08907181 8.14168245 -7.08369827 7.08369827 C-7.08337357 6.19243964 -7.08304886 5.30118101 -7.08271432 4.38291454 C-6.55493087 -0.10386895 -3.83647203 0.00139771 0 0 Z " fill="#403241" transform="translate(113.83201599121094,106.74831771850586)"/>
<path d="M0 0 C1.18906905 0.00539716 1.18906905 0.00539716 2.40215969 0.01090336 C3.24481601 0.01078282 4.08747232 0.01066229 4.95566368 0.0105381 C7.69623759 0.01128733 10.43674436 0.01891598 13.17730618 0.0267725 C14.86411411 0.02824189 16.5509225 0.02926262 18.23773098 0.02982426 C24.50796089 0.03507749 30.77818106 0.04903857 37.04839993 0.06192875 C51.05277493 0.08255375 65.05714993 0.10317875 79.48589993 0.12442875 C79.48589993 28.50442875 79.48589993 56.88442875 79.48589993 86.12442875 C51.10589993 86.12442875 22.72589993 86.12442875 -6.51410007 86.12442875 C-6.53472507 72.12005375 -6.55535007 58.11567875 -6.57660007 43.68692875 C-6.58570408 39.2584351 -6.59480808 34.82994144 -6.60418797 30.26725101 C-6.60870457 24.8762598 -6.60870457 24.8762598 -6.6095438 22.35573673 C-6.61108344 20.58827812 -6.61460879 18.82082059 -6.61967564 17.05336857 C-6.62695237 14.38245654 -6.62800752 11.71160891 -6.62762547 9.04068851 C-6.63122357 8.24797582 -6.63482168 7.45526312 -6.63852882 6.63852882 C-6.62619692 0.23682124 -6.40170758 0.01233191 0 0 Z " fill="#9CA256" transform="translate(315.51410007476807,308.8755712509155)"/>
<path d="M0 0 C14.004375 -0.020625 28.00875 -0.04125 42.4375 -0.0625 C49.08024048 -0.07615601 49.08024048 -0.07615601 55.85717773 -0.09008789 C61.24816895 -0.09460449 61.24816895 -0.09460449 63.76869202 -0.09544373 C65.53615063 -0.09698337 67.30360816 -0.10050871 69.07106018 -0.10557556 C71.74197221 -0.11285229 74.41281984 -0.11390744 77.08374023 -0.11352539 C77.87645293 -0.1171235 78.66916563 -0.12072161 79.48589993 -0.12442875 C84.88597366 -0.11402634 84.88597366 -0.11402634 86 1 C86.09511403 3.64741882 86.12554328 6.26855457 86.11352539 8.91625977 C86.11364593 9.75891608 86.11376646 10.6015724 86.11389065 11.46976376 C86.11314142 14.21033767 86.10551277 16.95084443 86.09765625 19.69140625 C86.09618686 21.37821418 86.09516613 23.06502257 86.09460449 24.75183105 C86.08935126 31.02206097 86.07539018 37.29228114 86.0625 43.5625 C86.041875 57.566875 86.02125 71.57125 86 86 C57.62 86 29.24 86 0 86 C0 57.62 0 29.24 0 0 Z " fill="#F2DA90" transform="translate(117,309)"/>
<path d="M0 0 C28.38 0 56.76 0 86 0 C86 28.38 86 56.76 86 86 C71.995625 86.020625 57.99125 86.04125 43.5625 86.0625 C36.91975952 86.07615601 36.91975952 86.07615601 30.14282227 86.09008789 C24.75183105 86.09460449 24.75183105 86.09460449 22.23130798 86.09544373 C20.46384937 86.09698337 18.69639184 86.10050871 16.92893982 86.10557556 C14.25802779 86.11285229 11.58718016 86.11390744 8.91625977 86.11352539 C8.12354707 86.1171235 7.33083437 86.12072161 6.51410007 86.12442875 C1.11402634 86.11402634 1.11402634 86.11402634 0 85 C-0.09511403 82.35258118 -0.12554328 79.73144543 -0.11352539 77.08374023 C-0.11364593 76.24108392 -0.11376646 75.3984276 -0.11389065 74.53023624 C-0.11314142 71.78966233 -0.10551277 69.04915557 -0.09765625 66.30859375 C-0.09618686 64.62178582 -0.09516613 62.93497743 -0.09460449 61.24816895 C-0.08935126 54.97793903 -0.07539018 48.70771886 -0.0625 42.4375 C-0.0315625 21.4309375 -0.0315625 21.4309375 0 0 Z " fill="#9CA256" transform="translate(309,117)"/>
<path d="M0 0 C28.38 0 56.76 0 86 0 C86.020625 14.004375 86.04125 28.00875 86.0625 42.4375 C86.071604 46.86599365 86.08070801 51.2944873 86.09008789 55.85717773 C86.09460449 61.24816895 86.09460449 61.24816895 86.09544373 63.76869202 C86.09698337 65.53615063 86.10050871 67.30360816 86.10557556 69.07106018 C86.11285229 71.74197221 86.11390744 74.41281984 86.11352539 77.08374023 C86.1171235 77.87645293 86.12072161 78.66916563 86.12442875 79.48589993 C86.11402634 84.88597366 86.11402634 84.88597366 85 86 C82.35258118 86.09511403 79.73144543 86.12554328 77.08374023 86.11352539 C76.24108392 86.11364593 75.3984276 86.11376646 74.53023624 86.11389065 C71.78966233 86.11314142 69.04915557 86.10551277 66.30859375 86.09765625 C64.62178582 86.09618686 62.93497743 86.09516613 61.24816895 86.09460449 C54.97793903 86.08935126 48.70771886 86.07539018 42.4375 86.0625 C28.433125 86.041875 14.42875 86.02125 0 86 C0 57.62 0 29.24 0 0 Z " fill="#FEE594" transform="translate(117,117)"/>
<path d="M0 0 C1.18906905 0.00539716 1.18906905 0.00539716 2.40215969 0.01090336 C3.24481601 0.01078282 4.08747232 0.01066229 4.95566368 0.0105381 C7.69623759 0.01128733 10.43674436 0.01891598 13.17730618 0.0267725 C14.86411411 0.02824189 16.5509225 0.02926262 18.23773098 0.02982426 C24.50796089 0.03507749 30.77818106 0.04903857 37.04839993 0.06192875 C51.05277493 0.08255375 65.05714993 0.10317875 79.48589993 0.12442875 C79.48589993 28.50442875 79.48589993 56.88442875 79.48589993 86.12442875 C65.48152493 86.14505375 51.47714993 86.16567875 37.04839993 86.18692875 C30.40565945 86.20058475 30.40565945 86.20058475 23.62872219 86.21451664 C18.23773098 86.21903324 18.23773098 86.21903324 15.71720791 86.21987247 C13.9497493 86.22141212 12.18229176 86.22493746 10.41483974 86.23000431 C7.74392771 86.23728104 5.07308009 86.23833619 2.40215969 86.23795414 C1.60944699 86.24155225 0.81673429 86.24515036 0 86.2488575 C-5.40007374 86.23845509 -5.40007374 86.23845509 -6.51410007 85.12442875 C-6.61451465 82.51292587 -6.65027064 79.9278451 -6.64349461 77.315835 C-6.64524693 76.49799534 -6.64699924 75.68015568 -6.64880466 74.837533 C-6.65322392 72.12064364 -6.65028494 69.40381882 -6.64691257 66.68692875 C-6.64758559 64.80745271 -6.6485556 62.92797675 -6.64981174 61.04850101 C-6.65128882 57.10407529 -6.64913386 53.15967217 -6.64447117 49.21524906 C-6.63877388 44.14730372 -6.64205283 39.07941133 -6.64804363 34.01146793 C-6.65164899 30.12885988 -6.65051078 26.24626447 -6.64791584 22.36365604 C-6.6472465 20.49445432 -6.64807523 18.62525147 -6.65039539 16.75605106 C-6.65292151 14.14834371 -6.64908192 11.54072334 -6.64349461 8.9330225 C-6.64551884 8.15272678 -6.64754307 7.37243107 -6.64962864 6.56849003 C-6.62423827 0.20502856 -6.35715236 0.01224608 0 0 Z " fill="#9CA255" transform="translate(219.51410007476807,212.87557125091553)"/>
<path d="M0 0 C28.05 0 56.1 0 85 0 C85 28.38 85 56.76 85 86 C56.95 86 28.9 86 0 86 C0 57.62 0 29.24 0 0 Z " fill="#DECA87" transform="translate(310,213)"/>
<path d="M0 0 C28.05 0 56.1 0 85 0 C85 28.38 85 56.76 85 86 C56.95 86 28.9 86 0 86 C0 57.62 0 29.24 0 0 Z " fill="#F3DC90" transform="translate(117,213)"/>
<path d="M0 0 C28.38 0 56.76 0 86 0 C86 28.05 86 56.1 86 85 C57.62 85 29.24 85 0 85 C0 56.95 0 28.9 0 0 Z " fill="#FEE594" transform="translate(213,117)"/>
<path d="M0 0 C27.72 0 55.44 0 84 0 C84 27.72 84 55.44 84 84 C56.28 84 28.56 84 0 84 C0 56.28 0 28.56 0 0 Z " fill="#E2CD88" transform="translate(214,310)"/>
<path d="M0 0 C28.38 0 56.76 0 86 0 C86.020625 14.004375 86.04125 28.00875 86.0625 42.4375 C86.071604 46.86599365 86.08070801 51.2944873 86.09008789 55.85717773 C86.09460449 61.24816895 86.09460449 61.24816895 86.09544373 63.76869202 C86.09698337 65.53615063 86.10050871 67.30360816 86.10557556 69.07106018 C86.11285229 71.74197221 86.11390744 74.41281984 86.11352539 77.08374023 C86.1171235 77.87645293 86.12072161 78.66916563 86.12442875 79.48589993 C86.11402634 84.88597366 86.11402634 84.88597366 85 86 C82.35258118 86.09511403 79.73144543 86.12554328 77.08374023 86.11352539 C76.24108392 86.11364593 75.3984276 86.11376646 74.53023624 86.11389065 C71.78966233 86.11314142 69.04915557 86.10551277 66.30859375 86.09765625 C64.62178582 86.09618686 62.93497743 86.09516613 61.24816895 86.09460449 C54.97793903 86.08935126 48.70771886 86.07539018 42.4375 86.0625 C28.433125 86.041875 14.42875 86.02125 0 86 C0 57.62 0 29.24 0 0 Z M1 1 C1 28.72 1 56.44 1 85 C23.77 85 46.54 85 70 85 C70 57.28 70 29.56 70 1 C47.23 1 24.46 1 1 1 Z " fill="#D2BF84" transform="translate(117,117)"/>
<path d="M0 0 C28.38 0 56.76 0 86 0 C86 28.05 86 56.1 86 85 C80.72 85 75.44 85 70 85 C70 57.28 70 29.56 70 1 C47.23 1 24.46 1 1 1 C1 28.72 1 56.44 1 85 C0.67 85 0.34 85 0 85 C0 56.95 0 28.9 0 0 Z " fill="#D5C184" transform="translate(213,117)"/>
<path d="M0 0 C4.16873622 1.70837877 6.40986645 4.14335452 8.9375 7.8125 C10.23079176 11.69237527 10.64902116 14.95173054 10 19 C9.46375 20.051875 8.9275 21.10375 8.375 22.1875 C6.65405632 24.92341343 6.65405632 24.92341343 7.75 27.75 C8.1625 28.4925 8.575 29.235 9 30 C10.75965448 33.51930896 10.5268285 37.15905268 10 41 C8.20869225 45.77961087 5.59594212 49.02097567 1.125 51.5 C-2.78512664 53.12251984 -5.75125409 53.74539402 -10 53 C-14.53808438 50.78036744 -18.06579001 48.27392271 -21.0625 44.1875 C-22.28320324 40.03710898 -22.63693874 36.29137477 -22 32 C-21.01120795 30.32665961 -20.01351664 28.65848177 -19 27 C-19.66096786 24.34754398 -19.66096786 24.34754398 -21 22 C-22.5271547 17.41853591 -22.97545313 13.27470814 -21.05859375 8.8046875 C-15.99066532 0.19397525 -9.68167616 -1.35928169 0 0 Z " fill="#433542" transform="translate(166,326)"/>
<path d="M0 0 C3 0.25 3 0.25 5 2.25 C5.22705078 5.13916016 5.22705078 5.13916016 5.1953125 8.7890625 C5.18886719 10.09101563 5.18242187 11.39296875 5.17578125 12.734375 C5.15906929 14.11458595 5.14213939 15.49479429 5.125 16.875 C5.11497006 18.26301452 5.10584423 19.65103589 5.09765625 21.0390625 C5.07401863 24.44288026 5.04106867 27.84635506 5 31.25 C5.78761719 31.22550781 6.57523438 31.20101563 7.38671875 31.17578125 C10 31.25 10 31.25 11.8125 32.4375 C13.42525784 34.89907776 13.4334014 36.36065736 13 39.25 C11.8125 41.0625 11.8125 41.0625 10 42.25 C7.3125 42.4375 7.3125 42.4375 5 42.25 C5.04125 43.52875 5.0825 44.8075 5.125 46.125 C5.1953125 48.3046875 5.1953125 48.3046875 5 50.25 C3 52.25 3 52.25 0 52.5 C-3 52.25 -3 52.25 -5 50.25 C-5.26991906 47.56160615 -5.08737357 44.95858064 -5 42.25 C-5.93066284 42.27356567 -5.93066284 42.27356567 -6.88012695 42.29760742 C-9.69082528 42.35996214 -12.50137812 42.39899148 -15.3125 42.4375 C-16.28896484 42.46263672 -17.26542969 42.48777344 -18.27148438 42.51367188 C-19.67817383 42.52817383 -19.67817383 42.52817383 -21.11328125 42.54296875 C-21.97735596 42.5586792 -22.84143066 42.57438965 -23.73168945 42.59057617 C-26 42.25 -26 42.25 -27.79956055 40.92822266 C-29 39.25 -29 39.25 -29.09375 36.10546875 C-28.10179289 31.02168855 -24.72627033 27.45403227 -21.5 23.5625 C-20.22308125 21.97596593 -18.94704129 20.38872418 -17.671875 18.80078125 C-17.04603516 18.02943848 -16.42019531 17.2580957 -15.77539062 16.46337891 C-13.35667085 13.44796177 -11.04329216 10.36127861 -8.75 7.25 C-3.61568821 0.30130735 -3.61568821 0.30130735 0 0 Z " fill="#413340" transform="translate(168,229.75)"/>
<path d="M0 0 C4.65640666 0.71124111 6.56053118 3.11473974 9.6484375 6.5 C10.19371094 7.07234375 10.73898437 7.6446875 11.30078125 8.234375 C12.63902762 9.64305539 13.95818725 11.06982497 15.2734375 12.5 C20.20984113 10.52088887 23.14944014 6.48047356 26.640625 2.6171875 C29.2734375 0.5 29.2734375 0.5 32.46875 0.0703125 C35.2734375 0.5 35.2734375 0.5 37.2734375 2.5 C37.7734375 5.2265625 37.7734375 5.2265625 37.2734375 8.5 C35.55991394 10.93881672 33.46930844 12.87200962 31.2734375 14.875 C30.41492188 15.69291016 30.41492188 15.69291016 29.5390625 16.52734375 C28.13038211 17.86559012 26.70361253 19.18474975 25.2734375 20.5 C27.25254863 25.43640363 31.29296394 28.37600264 35.15625 31.8671875 C37.2734375 34.5 37.2734375 34.5 37.703125 37.6953125 C37.2734375 40.5 37.2734375 40.5 35.2734375 42.5 C32.546875 43 32.546875 43 29.2734375 42.5 C26.83462078 40.78647644 24.90142788 38.69587094 22.8984375 36.5 C22.08052734 35.64148438 22.08052734 35.64148438 21.24609375 34.765625 C19.90784738 33.35694461 18.58868775 31.93017503 17.2734375 30.5 C12.33703387 32.47911113 9.39743486 36.51952644 5.90625 40.3828125 C3.2734375 42.5 3.2734375 42.5 0.078125 42.9296875 C-2.7265625 42.5 -2.7265625 42.5 -4.7265625 40.5 C-5.2265625 37.7734375 -5.2265625 37.7734375 -4.7265625 34.5 C-3.01303894 32.06118328 -0.92243344 30.12799038 1.2734375 28.125 C1.84578125 27.57972656 2.418125 27.03445313 3.0078125 26.47265625 C4.41649289 25.13440988 5.84326247 23.81525025 7.2734375 22.5 C5.29432637 17.56359637 1.25391106 14.62399736 -2.609375 11.1328125 C-4.7265625 8.5 -4.7265625 8.5 -5.15625 5.3046875 C-4.57691557 1.52321366 -3.76055439 0.68961456 0 0 Z " fill="#403240" transform="translate(335.7265625,330.5)"/>
<path d="M0 0 C4.65640666 0.71124111 6.56053118 3.11473974 9.6484375 6.5 C10.19371094 7.07234375 10.73898438 7.6446875 11.30078125 8.234375 C12.63902762 9.64305539 13.95818725 11.06982497 15.2734375 12.5 C20.20984113 10.52088887 23.14944014 6.48047356 26.640625 2.6171875 C29.2734375 0.5 29.2734375 0.5 32.46875 0.0703125 C35.2734375 0.5 35.2734375 0.5 37.2734375 2.5 C37.7734375 5.2265625 37.7734375 5.2265625 37.2734375 8.5 C35.55991394 10.93881672 33.46930844 12.87200962 31.2734375 14.875 C30.41492188 15.69291016 30.41492188 15.69291016 29.5390625 16.52734375 C28.13038211 17.86559012 26.70361253 19.18474975 25.2734375 20.5 C27.25254863 25.43640363 31.29296394 28.37600264 35.15625 31.8671875 C37.2734375 34.5 37.2734375 34.5 37.703125 37.6953125 C37.2734375 40.5 37.2734375 40.5 35.2734375 42.5 C32.546875 43 32.546875 43 29.2734375 42.5 C26.83462078 40.78647644 24.90142788 38.69587094 22.8984375 36.5 C22.08052734 35.64148438 22.08052734 35.64148438 21.24609375 34.765625 C19.90784738 33.35694461 18.58868775 31.93017503 17.2734375 30.5 C12.33703387 32.47911113 9.39743486 36.51952644 5.90625 40.3828125 C3.2734375 42.5 3.2734375 42.5 0.078125 42.9296875 C-2.7265625 42.5 -2.7265625 42.5 -4.7265625 40.5 C-5.2265625 37.7734375 -5.2265625 37.7734375 -4.7265625 34.5 C-3.01303894 32.06118328 -0.92243344 30.12799038 1.2734375 28.125 C1.84578125 27.57972656 2.418125 27.03445313 3.0078125 26.47265625 C4.41649289 25.13440988 5.84326247 23.81525025 7.2734375 22.5 C5.29432637 17.56359637 1.25391106 14.62399736 -2.609375 11.1328125 C-4.7265625 8.5 -4.7265625 8.5 -5.15625 5.3046875 C-4.57691557 1.52321366 -3.76055439 0.68961456 0 0 Z " fill="#403240" transform="translate(239.7265625,234.5)"/>
<path d="M0 0 C4.65640666 0.71124111 6.56053118 3.11473974 9.6484375 6.5 C10.19371094 7.07234375 10.73898437 7.6446875 11.30078125 8.234375 C12.63902762 9.64305539 13.95818725 11.06982497 15.2734375 12.5 C20.20984113 10.52088887 23.14944014 6.48047356 26.640625 2.6171875 C29.2734375 0.5 29.2734375 0.5 32.46875 0.0703125 C35.2734375 0.5 35.2734375 0.5 37.2734375 2.5 C37.7734375 5.2265625 37.7734375 5.2265625 37.2734375 8.5 C35.55991394 10.93881672 33.46930844 12.87200962 31.2734375 14.875 C30.41492188 15.69291016 30.41492188 15.69291016 29.5390625 16.52734375 C28.13038211 17.86559012 26.70361253 19.18474975 25.2734375 20.5 C27.25254863 25.43640363 31.29296394 28.37600264 35.15625 31.8671875 C37.2734375 34.5 37.2734375 34.5 37.703125 37.6953125 C37.2734375 40.5 37.2734375 40.5 35.2734375 42.5 C32.546875 43 32.546875 43 29.2734375 42.5 C26.83462078 40.78647644 24.90142788 38.69587094 22.8984375 36.5 C22.08052734 35.64148438 22.08052734 35.64148438 21.24609375 34.765625 C19.90784738 33.35694461 18.58868775 31.93017503 17.2734375 30.5 C12.33703387 32.47911113 9.39743486 36.51952644 5.90625 40.3828125 C3.2734375 42.5 3.2734375 42.5 0.078125 42.9296875 C-2.7265625 42.5 -2.7265625 42.5 -4.7265625 40.5 C-5.2265625 37.7734375 -5.2265625 37.7734375 -4.7265625 34.5 C-3.01303894 32.06118328 -0.92243344 30.12799038 1.2734375 28.125 C1.84578125 27.57972656 2.418125 27.03445312 3.0078125 26.47265625 C4.41649289 25.13440988 5.84326247 23.81525025 7.2734375 22.5 C5.29432637 17.56359637 1.25391106 14.62399736 -2.609375 11.1328125 C-4.7265625 8.5 -4.7265625 8.5 -5.15625 5.3046875 C-4.57691557 1.52321366 -3.76055439 0.68961456 0 0 Z " fill="#403240" transform="translate(335.7265625,138.5)"/>
<path d="M0 0 C1.2219104 0.00607269 1.2219104 0.00607269 2.46850586 0.01226807 C3.30438232 0.01035461 4.14025879 0.00844116 5.00146484 0.00646973 C6.77010397 0.00510771 8.53875309 0.0088053 10.30737305 0.01715088 C13.02016579 0.02785031 15.7322963 0.01725631 18.44506836 0.00445557 C20.16121566 0.00577716 21.87736255 0.00833955 23.59350586 0.01226807 C24.40811279 0.0082196 25.22271973 0.00417114 26.06201172 0 C31.80108658 0.04797379 31.80108658 0.04797379 34.03100586 2.27789307 C34.57534403 7.02885369 33.78840982 9.33211244 30.84741211 13.03570557 C30.17073486 13.90356689 29.49405762 14.77142822 28.796875 15.66558838 C28.06976318 16.56889893 27.34265137 17.47220947 26.59350586 18.40289307 C25.12445074 20.27504951 23.65569913 22.14744417 22.18725586 24.02008057 C21.11604492 25.3711792 21.11604492 25.3711792 20.02319336 26.74957275 C17.4882356 29.96673238 15.02996348 33.23588941 12.59350586 36.52789307 C9.13597824 41.17292069 9.13597824 41.17292069 8.03100586 42.27789307 C5.09350586 42.46539307 5.09350586 42.46539307 2.03100586 42.27789307 C0.03100586 40.27789307 0.03100586 40.27789307 -0.30834961 37.47003174 C0.09482114 33.67761627 1.108132 32.17046114 3.46069336 29.20367432 C4.17354492 28.28908447 4.88639648 27.37449463 5.62084961 26.43218994 C6.37495117 25.49439697 7.12905273 24.556604 7.90600586 23.59039307 C9.38290273 21.71174964 10.85947958 19.83285456 12.33569336 17.95367432 C12.99553223 17.12778809 13.65537109 16.30190186 14.33520508 15.45098877 C15.63896886 13.78027161 16.85547379 12.04119117 18.03100586 10.27789307 C17.31444824 10.2883667 16.59789062 10.29884033 15.85961914 10.30963135 C12.62511681 10.35110606 9.39067033 10.37719199 6.15600586 10.40289307 C5.02807617 10.41965088 3.90014648 10.43640869 2.73803711 10.45367432 C1.12348633 10.46334229 1.12348633 10.46334229 -0.52368164 10.47320557 C-2.01617432 10.48891602 -2.01617432 10.48891602 -3.53881836 10.50494385 C-5.96899414 10.27789307 -5.96899414 10.27789307 -7.96899414 8.27789307 C-8.21899414 5.27789307 -8.21899414 5.27789307 -7.96899414 2.27789307 C-5.36593522 -0.32516585 -3.54620875 0.02964329 0 0 Z " fill="#423441" transform="translate(146.968994140625,138.72210693359375)"/>
<path d="M0 0 C3 0.25 3 0.25 5 2.25 C5.19990227 5.09540142 5.27976976 7.84137784 5.265625 10.6875 C5.26753845 11.52337646 5.2694519 12.35925293 5.27142334 13.22045898 C5.27278536 14.98909811 5.26908776 16.75774723 5.26074219 18.52636719 C5.25004275 21.23915994 5.26063676 23.95129044 5.2734375 26.6640625 C5.27211591 28.3802098 5.26955352 30.09635669 5.265625 31.8125 C5.26967346 32.62710693 5.27372192 33.44171387 5.27789307 34.28100586 C5.22991928 40.02008072 5.22991928 40.02008072 3 42.25 C0 42.5 0 42.5 -3 42.25 C-5.60305892 39.64694108 -5.24824978 37.82721461 -5.27789307 34.28100586 C-5.2738446 33.46639893 -5.26979614 32.65179199 -5.265625 31.8125 C-5.26753845 30.97662354 -5.2694519 30.14074707 -5.27142334 29.27954102 C-5.27278536 27.51090189 -5.26908776 25.74225277 -5.26074219 23.97363281 C-5.25004275 21.26084006 -5.26063676 18.54870956 -5.2734375 15.8359375 C-5.27211591 14.1197902 -5.26955352 12.40364331 -5.265625 10.6875 C-5.26967346 9.87289307 -5.27372192 9.05828613 -5.27789307 8.21899414 C-5.21282049 0.43440171 -5.21282049 0.43440171 0 0 Z " fill="#403240" transform="translate(256,138.75)"/>
<path d="M0 0 C0.94875 0.04125 1.8975 0.0825 2.875 0.125 C2.545 0.785 2.215 1.445 1.875 2.125 C1.39625944 5.10857958 1.22034447 7.19002052 3.00390625 9.73730469 C4.56564577 11.40608249 6.18647313 12.95978968 7.875 14.5 C8.44734375 15.04527344 9.0196875 15.59054687 9.609375 16.15234375 C11.01805539 17.49059012 12.44482497 18.80974975 13.875 20.125 C11.89588887 25.06140363 7.85547356 28.00100264 3.9921875 31.4921875 C1.60335398 33.98334216 1.60335398 33.98334216 1.5078125 37.3203125 C1.71254489 40.07285868 1.71254489 40.07285868 2.875 42.125 C0 42.25 0 42.25 -3.125 42.125 C-5.125 40.125 -5.125 40.125 -5.625 37.3984375 C-4.91375889 32.74203084 -2.51026026 30.83790632 0.875 27.75 C1.44734375 27.20472656 2.0196875 26.65945313 2.609375 26.09765625 C4.01805539 24.75940988 5.44482497 23.44025025 6.875 22.125 C4.89588887 17.18859637 0.85547356 14.24899736 -3.0078125 10.7578125 C-5.125 8.125 -5.125 8.125 -5.5546875 4.9296875 C-4.93297593 0.8716065 -4.10620577 0.16424823 0 0 Z " fill="#8D9351" transform="translate(330.125,330.875)"/>
<path d="M0 0 C0.94875 0.04125 1.8975 0.0825 2.875 0.125 C2.545 0.785 2.215 1.445 1.875 2.125 C1.39625944 5.10857958 1.22034447 7.19002052 3.00390625 9.73730469 C4.56564577 11.40608249 6.18647313 12.95978968 7.875 14.5 C8.44734375 15.04527344 9.0196875 15.59054688 9.609375 16.15234375 C11.01805539 17.49059012 12.44482497 18.80974975 13.875 20.125 C11.89588887 25.06140363 7.85547356 28.00100264 3.9921875 31.4921875 C1.60335398 33.98334216 1.60335398 33.98334216 1.5078125 37.3203125 C1.71254489 40.07285868 1.71254489 40.07285868 2.875 42.125 C0 42.25 0 42.25 -3.125 42.125 C-5.125 40.125 -5.125 40.125 -5.625 37.3984375 C-4.91375889 32.74203084 -2.51026026 30.83790632 0.875 27.75 C1.44734375 27.20472656 2.0196875 26.65945313 2.609375 26.09765625 C4.01805539 24.75940988 5.44482497 23.44025025 6.875 22.125 C4.89588887 17.18859637 0.85547356 14.24899736 -3.0078125 10.7578125 C-5.125 8.125 -5.125 8.125 -5.5546875 4.9296875 C-4.93297593 0.8716065 -4.10620577 0.16424823 0 0 Z " fill="#8D9351" transform="translate(234.125,234.875)"/>
<path d="M0 0 C0.94875 0.04125 1.8975 0.0825 2.875 0.125 C2.545 0.785 2.215 1.445 1.875 2.125 C1.39625944 5.10857958 1.22034447 7.19002052 3.00390625 9.73730469 C4.56564577 11.40608249 6.18647313 12.95978968 7.875 14.5 C8.44734375 15.04527344 9.0196875 15.59054688 9.609375 16.15234375 C11.01805539 17.49059012 12.44482497 18.80974975 13.875 20.125 C11.89588887 25.06140363 7.85547356 28.00100264 3.9921875 31.4921875 C1.60335398 33.98334216 1.60335398 33.98334216 1.5078125 37.3203125 C1.71254489 40.07285868 1.71254489 40.07285868 2.875 42.125 C0 42.25 0 42.25 -3.125 42.125 C-5.125 40.125 -5.125 40.125 -5.625 37.3984375 C-4.91375889 32.74203084 -2.51026026 30.83790632 0.875 27.75 C1.44734375 27.20472656 2.0196875 26.65945312 2.609375 26.09765625 C4.01805539 24.75940988 5.44482497 23.44025025 6.875 22.125 C4.89588887 17.18859637 0.85547356 14.24899736 -3.0078125 10.7578125 C-5.125 8.125 -5.125 8.125 -5.5546875 4.9296875 C-4.93297593 0.8716065 -4.10620577 0.16424823 0 0 Z " fill="#8D9351" transform="translate(330.125,138.875)"/>
<path d="M0 0 C-0.928125 0.53625 -1.85625 1.0725 -2.8125 1.625 C-6.37467318 4.27916825 -7.55718182 5.83185858 -9 10 C-9.62656244 14.35112806 -9.39097932 17.23307903 -7.375 21.1875 C-6 24 -6 24 -6.75 26.75 C-7.1625 27.4925 -7.575 28.235 -8 29 C-9.74128861 32.48257722 -9.44943728 36.19226753 -9 40 C-7.25919279 44.86290711 -4.21104185 48.07566538 0 51 C-5.44533513 50.61104749 -8.12686961 48.7851047 -12 45 C-14.75832896 40.54567148 -14.4230682 36.08465296 -14 31 C-13.4765625 28.93359375 -13.4765625 28.93359375 -12.875 27.125 C-11.83027209 23.39382889 -12.36920006 23.2556697 -14 20 C-14.55301696 15.18085225 -14.64176869 10.58753309 -12.8125 6.0625 C-9.00652351 1.73156123 -5.79568683 -1.73870605 0 0 Z " fill="#DEC986" transform="translate(154,327)"/>
<path d="M0 0 C0.598125 0.226875 1.19625 0.45375 1.8125 0.6875 C1.4825 1.0175 1.1525 1.3475 0.8125 1.6875 C0.64583333 4.6875 0.64583333 4.6875 0.8125 7.6875 C2.52693219 9.40193219 4.81695241 8.91802967 7.16015625 9.00390625 C8.23974609 9.04580078 9.31933594 9.08769531 10.43164062 9.13085938 C12.13610352 9.18983398 12.13610352 9.18983398 13.875 9.25 C15.01517578 9.29318359 16.15535156 9.33636719 17.33007812 9.38085938 C20.15742195 9.48732839 22.98485738 9.58934207 25.8125 9.6875 C24.34790273 12.89718821 22.52605143 15.48212998 20.3359375 18.2421875 C19.665625 19.10457031 18.9953125 19.96695313 18.3046875 20.85546875 C16.89403906 22.65912072 15.47474532 24.45604464 14.046875 26.24609375 C13.37914062 27.11105469 12.71140625 27.97601563 12.0234375 28.8671875 C11.40774902 29.64819824 10.79206055 30.42920898 10.15771484 31.23388672 C8.49524307 34.26616283 8.49460605 36.27677509 8.8125 39.6875 C9.1425 40.3475 9.4725 41.0075 9.8125 41.6875 C5.0625 40.9375 5.0625 40.9375 2.8125 38.6875 C2.66575333 32.29912821 6.92630112 28.17256761 10.75 23.5 C12.03054863 21.90282519 13.31052109 20.30518822 14.58984375 18.70703125 C15.15952881 18.00682861 15.72921387 17.30662598 16.31616211 16.58520508 C17.55814618 15.01007991 18.69983947 13.3564908 19.8125 11.6875 C17.84216797 11.61402344 17.84216797 11.61402344 15.83203125 11.5390625 C14.09633405 11.46400532 12.36065797 11.38845877 10.625 11.3125 C9.32852539 11.26609375 9.32852539 11.26609375 8.00585938 11.21875 C-0.5462482 10.82554965 -0.5462482 10.82554965 -4.1875 8.6875 C-5.1875 5.75 -5.1875 5.75 -5.1875 2.6875 C-3.62441875 0.13720955 -3.00012909 -0.42858987 0 0 Z " fill="#D7C383" transform="translate(139.1875,139.3125)"/>
<path d="M0 0 C0.598125 0.226875 1.19625 0.45375 1.8125 0.6875 C1.4825 1.0175 1.1525 1.3475 0.8125 1.6875 C0.71144178 4.47575348 0.6728016 7.23870873 0.6796875 10.02734375 C0.67825241 11.28328087 0.67825241 11.28328087 0.67678833 12.56459045 C0.67610645 14.33920364 0.67796128 16.11381931 0.68212891 17.88842773 C0.6874704 20.6099202 0.68218765 23.33124712 0.67578125 26.05273438 C0.67644216 27.77343787 0.67772359 29.49414125 0.6796875 31.21484375 C0.67766327 32.03258774 0.67563904 32.85033173 0.67355347 33.69285583 C0.58487268 37.82250659 0.58487268 37.82250659 1.8125 41.6875 C-1.125 41.3125 -1.125 41.3125 -4.1875 40.6875 C-5.75925605 37.5439879 -5.37151351 34.17506483 -5.390625 30.72265625 C-5.39632507 29.93354355 -5.40202515 29.14443085 -5.40789795 28.33140564 C-5.41734925 26.66113629 -5.42388245 24.99084829 -5.42773438 23.32055664 C-5.43744869 20.76350488 -5.46847332 18.20725395 -5.5 15.65039062 C-5.50652922 14.02865061 -5.51178001 12.40690485 -5.515625 10.78515625 C-5.5279718 10.01945816 -5.5403186 9.25376007 -5.55303955 8.46485901 C-5.53087076 3.19013712 -5.53087076 3.19013712 -3.80371094 0.66186523 C-2.1875 -0.3125 -2.1875 -0.3125 0 0 Z " fill="#D8C484" transform="translate(251.1875,139.3125)"/>
<path d="M0 0 C0.78592529 0.03891357 1.57185059 0.07782715 2.3815918 0.11791992 C1.85480835 0.81776001 1.85480835 0.81776001 1.31738281 1.53173828 C-2.71162188 6.89299351 -6.70342217 12.28086413 -10.6809082 17.68041992 C-11.5790625 18.89761719 -11.5790625 18.89761719 -12.49536133 20.1394043 C-13.66380232 21.72505422 -14.82920237 23.3129505 -15.99121094 24.90332031 C-17.03270528 26.32078396 -18.08590009 27.7297701 -19.15380859 29.12744141 C-22.32717047 33.34941197 -23.16114062 35.79914226 -22.6184082 41.11791992 C-21.9584082 41.44791992 -21.2984082 41.77791992 -20.6184082 42.11791992 C-23.3832747 42.34209829 -25.08118308 42.440255 -27.4934082 40.99291992 C-29.20273562 38.14404089 -28.38888447 36.27794002 -27.6184082 33.11791992 C-26.17895508 30.69946289 -26.17895508 30.69946289 -24.3371582 28.36010742 C-23.66402588 27.49216553 -22.99089355 26.62422363 -22.29736328 25.72998047 C-21.57830811 24.82675049 -20.85925293 23.92352051 -20.1184082 22.99291992 C-18.65277332 21.12244581 -17.18792505 19.25135505 -15.72387695 17.37963867 C-15.01537598 16.47906738 -14.306875 15.57849609 -13.5769043 14.65063477 C-11.90664844 12.49067039 -10.29924422 10.30979531 -8.73168945 8.07495117 C-7.97243164 6.99600586 -7.21317383 5.91706055 -6.4309082 4.80541992 C-5.79797852 3.88116211 -5.16504883 2.9569043 -4.51293945 2.00463867 C-2.6184082 0.11791992 -2.6184082 0.11791992 0 0 Z " fill="#DDC885" transform="translate(162.618408203125,229.882080078125)"/>
<path d="M0 0 C2.875 0.6875 2.875 0.6875 3.875 1.6875 C4.0625 4.625 4.0625 4.625 3.875 7.6875 C1.875 9.6875 1.875 9.6875 -1.125 9.9375 C-4.125 9.6875 -4.125 9.6875 -6.125 7.6875 C-6.4375 4.6875 -6.4375 4.6875 -6.125 1.6875 C-3.125 -0.3125 -3.125 -0.3125 0 0 Z " fill="#DBC685" transform="translate(161.125,336.3125)"/>
<path d="M0 0 C3 0.25 3 0.25 5 2.25 C4.625 5.875 4.625 5.875 4 9.25 C1.69 9.58 -0.62 9.91 -3 10.25 C-5.14915785 7.02626323 -5.38286803 5.98296326 -5 2.25 C-3 0.25 -3 0.25 0 0 Z " fill="#DBC685" transform="translate(160,357.75)"/>
<path d="M0 0 C3.87939509 1.58620127 6.33361087 4.09920987 9.25 7.0625 C10.14203125 7.96097656 11.0340625 8.85945313 11.953125 9.78515625 C14 12 14 12 14 13 C9.97948601 13.47161454 8.46566512 13.36728517 5.2265625 10.8125 C4.36804688 9.884375 3.50953125 8.95625 2.625 8 C1.75101562 7.071875 0.87703125 6.14375 -0.0234375 5.1875 C-0.67570312 4.465625 -1.32796875 3.74375 -2 3 C-1.34 2.01 -0.68 1.02 0 0 Z " fill="#8C9151" transform="translate(351,360)"/>
<path d="M0 0 C-3.80475422 4.56030824 -7.74969621 8.85089392 -12 13 C-13.32 12.34 -14.64 11.68 -16 11 C-14.53742851 9.26441516 -13.06607838 7.53814636 -11.578125 5.82421875 C-10.36456576 4.42141636 -9.17658133 2.99645849 -8 1.5625 C-5.2839066 -0.55944797 -3.3523458 -0.30475871 0 0 Z " fill="#8D9251" transform="translate(365,331)"/>
<path d="M0 0 C3.87939509 1.58620127 6.33361087 4.09920987 9.25 7.0625 C10.14203125 7.96097656 11.0340625 8.85945313 11.953125 9.78515625 C14 12 14 12 14 13 C9.97948601 13.47161454 8.46566512 13.36728517 5.2265625 10.8125 C4.36804688 9.884375 3.50953125 8.95625 2.625 8 C1.75101562 7.071875 0.87703125 6.14375 -0.0234375 5.1875 C-0.67570313 4.465625 -1.32796875 3.74375 -2 3 C-1.34 2.01 -0.68 1.02 0 0 Z " fill="#8C9151" transform="translate(255,264)"/>
<path d="M0 0 C-3.80475422 4.56030824 -7.74969621 8.85089392 -12 13 C-13.32 12.34 -14.64 11.68 -16 11 C-14.53742851 9.26441516 -13.06607838 7.53814636 -11.578125 5.82421875 C-10.36456576 4.42141636 -9.17658133 2.99645849 -8 1.5625 C-5.2839066 -0.55944797 -3.3523458 -0.30475871 0 0 Z " fill="#8D9251" transform="translate(269,235)"/>
<path d="M0 0 C3.87939509 1.58620127 6.33361087 4.09920987 9.25 7.0625 C10.14203125 7.96097656 11.0340625 8.85945312 11.953125 9.78515625 C14 12 14 12 14 13 C9.97948601 13.47161454 8.46566512 13.36728517 5.2265625 10.8125 C4.36804688 9.884375 3.50953125 8.95625 2.625 8 C1.75101562 7.071875 0.87703125 6.14375 -0.0234375 5.1875 C-0.67570312 4.465625 -1.32796875 3.74375 -2 3 C-1.34 2.01 -0.68 1.02 0 0 Z " fill="#8C9151" transform="translate(351,168)"/>
<path d="M0 0 C-3.80475422 4.56030824 -7.74969621 8.85089392 -12 13 C-13.32 12.34 -14.64 11.68 -16 11 C-14.53742851 9.26441516 -13.06607838 7.53814636 -11.578125 5.82421875 C-10.36456576 4.42141636 -9.17658133 2.99645849 -8 1.5625 C-5.2839066 -0.55944797 -3.3523458 -0.30475871 0 0 Z " fill="#8D9251" transform="translate(365,139)"/>
<path d="M0 0 C1.65 0 3.3 0 5 0 C5.22786458 2.01822917 5.45572917 4.03645833 5.68359375 6.0546875 C5.91292961 8.07404316 5.91292961 8.07404316 7 10 C4.625 10.125 4.625 10.125 2 10 C0 8 0 8 -0.1953125 6.0546875 C-0.13020833 4.03645833 -0.06510417 2.01822917 0 0 Z " fill="#D7C383" transform="translate(158,272)"/>
<path d="M0 0 C-0.33 0.33 -0.66 0.66 -1 1 C-1.44979055 5.26080589 -1.44979055 5.26080589 0.5 8.875 C0.995 9.24625 1.49 9.6175 2 10 C-0.9787979 9.66902246 -3.35930766 9.3926824 -5.9375 7.8125 C-7 6 -7 6 -6.8125 2.875 C-6.544375 1.92625 -6.27625 0.9775 -6 0 C-3.50907189 -1.24546405 -2.58919267 -0.7767578 0 0 Z " fill="#E0CB87" transform="translate(141,140)"/>
<path d="M0 0 C0.33 0 0.66 0 1 0 C1 3.3 1 6.6 1 10 C-1.64 10 -4.28 10 -7 10 C-6.02223933 8.51990357 -5.0427506 7.04094856 -4.0625 5.5625 C-3.51722656 4.73878906 -2.97195312 3.91507813 -2.41015625 3.06640625 C-1 1 -1 1 0 0 Z " fill="#D0BB80" transform="translate(162,251)"/>
<path d="M0 0 C2.0625 0.4375 2.0625 0.4375 4 1 C4.625 3.3125 4.625 3.3125 5 6 C4.01 7.485 4.01 7.485 3 9 C1.68 8.34 0.36 7.68 -1 7 C-1.04254356 5.00045254 -1.04080783 2.99958364 -1 1 C-0.67 0.67 -0.34 0.34 0 0 Z " fill="#F7DF91" transform="translate(156,337)"/>
<path d="M0 0 C0.99 0.33 1.98 0.66 3 1 C3.625 3.875 3.625 3.875 4 7 C3.34 7.66 2.68 8.32 2 9 C1.01 9 0.02 9 -1 9 C-1.625 5.625 -1.625 5.625 -2 2 C-1.34 1.34 -0.68 0.68 0 0 Z " fill="#F9E192" transform="translate(157,358)"/>
</svg>
